<?xml version="1.0" encoding="utf-8"?>
<!-- Generator: Adobe Illustrator 26.0.0, SVG Export Plug-In . SVG Version: 6.00 Build 0)  -->
<svg version="1.1" id="Layer_1" xmlns="http://www.w3.org/2000/svg" xmlns:xlink="http://www.w3.org/1999/xlink" x="0px" y="0px"
	 viewBox="0 0 64 64" style="enable-background:new 0 0 64 64;" xml:space="preserve">
<style type="text/css">
	.st0{fill:none;stroke:#FFFFFF;stroke-width:2;stroke-linecap:round;stroke-linejoin:round;}
	.st1{fill:#FFFFFF;}
</style>
<g>
	<path class="st0" d="M36.7,22.9c0,2.9-2.3,7.9-5.2,7.9s-5.2-5-5.2-7.9c0.1-2.9,2.5-5.1,5.4-5C34.4,18,36.6,20.2,36.7,22.9
		L36.7,22.9z"/>
	<path class="st0" d="M20.8,45.4c0-5.9,4.8-10.7,10.7-10.7s10.7,4.8,10.7,10.7"/>
	<path class="st0" d="M49.7,26.4c0,2.4-2,6.8-4.4,6.8s-4.4-4.4-4.4-6.8c0-2.4,2-4.4,4.4-4.4C47.7,22,49.7,23.9,49.7,26.4L49.7,26.4z
		"/>
	<path class="st0" d="M39.8,38.3c4-3,9.7-2.2,12.7,1.8c1.2,1.6,1.8,3.5,1.8,5.5"/>
	<path class="st0" d="M13.3,26.4c0,2.4,2,6.8,4.4,6.8s4.4-4.4,4.4-6.8c0-2.4-2-4.4-4.4-4.4S13.3,23.9,13.3,26.4L13.3,26.4L13.3,26.4
		z"/>
	<path class="st0" d="M23.2,38.3c-4-3-9.7-2.2-12.7,1.8c-1.2,1.6-1.8,3.5-1.8,5.5"/>
	<path class="st1" d="M32,64C14.4,64,0,49.6,0,32C0,14.4,14.4,0,32,0c17.6,0,32,14.4,32,32C64,49.6,49.6,64,32,64z M32,2
		C15.5,2,2,15.5,2,32c0,16.5,13.5,30,30,30c16.5,0,30-13.5,30-30C62,15.5,48.5,2,32,2z"/>
</g>
</svg>
