<?xml version="1.0" encoding="utf-8"?>
<!-- Generator: Adobe Illustrator 26.0.0, SVG Export Plug-In . SVG Version: 6.00 Build 0)  -->
<svg version="1.1" id="Layer_2" xmlns="http://www.w3.org/2000/svg" xmlns:xlink="http://www.w3.org/1999/xlink" x="0px" y="0px"
	 viewBox="0 0 32 32" style="enable-background:new 0 0 32 32;" xml:space="preserve">
<style type="text/css">
	.st0{fill:#FFFFFF;}
</style>
<g>
	<path class="st0" d="M16,32C7.2,32,0,24.8,0,16C0,7.2,7.2,0,16,0c8.8,0,16,7.2,16,16C32,24.8,24.8,32,16,32z M16,1
		C7.7,1,1,7.7,1,16c0,8.3,6.7,15,15,15c8.3,0,15-6.7,15-15C31,7.7,24.3,1,16,1z"/>
	<path class="st0" d="M20.4,26.1c-1.5,0-1.6-0.1-1.8-0.2c-0.1-0.1-0.2-0.2-0.2-0.4v-5.7h-5.2v5.7c0,0.3-0.2,0.6-0.6,0.6H8.6
		c-1,0-1.9-0.8-1.9-1.9V16c0-0.3,0.2-0.6,0.6-0.6s0.6,0.2,0.6,0.6v8.2c0,0.4,0.4,0.8,0.8,0.8h3.7v-5.7c0-0.3,0.2-0.6,0.6-0.6h6.3
		c0.3,0,0.6,0.2,0.6,0.6v5.7c0.5,0,1.5,0,3.6,0c0.4,0,0.8-0.4,0.8-0.8V16c0-0.3,0.2-0.6,0.6-0.6c0.3,0,0.6,0.2,0.6,0.6v8.1
		c0,1-0.8,1.9-1.9,1.9C22,26,21.1,26.1,20.4,26.1z"/>
	<path class="st0" d="M27.1,14.8c-0.1,0-0.2,0-0.3-0.1L15.9,7L5.1,14.7c-0.2,0.2-0.6,0.1-0.8-0.1c-0.2-0.2-0.1-0.6,0.1-0.8l11.1-8
		c0.2-0.1,0.4-0.1,0.6,0l11.2,8c0.2,0.2,0.3,0.5,0.1,0.8C27.4,14.7,27.3,14.8,27.1,14.8z"/>
	<path class="st0" d="M7.2,10.3c-0.3,0-0.6-0.2-0.6-0.6V6.5C6.7,6.2,6.9,6,7.2,6h3.1c0.3,0,0.6,0.2,0.6,0.6c0,0.3-0.2,0.6-0.6,0.6
		H7.8v2.7C7.8,10.1,7.5,10.3,7.2,10.3z"/>
</g>
</svg>
