<?xml version="1.0" encoding="utf-8"?>
<!-- Generator: Adobe Illustrator 26.0.0, SVG Export Plug-In . SVG Version: 6.00 Build 0)  -->
<svg version="1.1" id="Layer_1" xmlns="http://www.w3.org/2000/svg" xmlns:xlink="http://www.w3.org/1999/xlink" x="0px" y="0px"
	 viewBox="0 0 48 48" style="enable-background:new 0 0 48 48;" xml:space="preserve">
<style type="text/css">
	.st0{fill-rule:evenodd;clip-rule:evenodd;fill:#FFFFFF;}
	.st1{fill:#FFFFFF;}
</style>
<path class="st0" d="M10.6,41.2V21c0-1.7,1.3-3,3-3l0,0v-3c0-0.8,0.7-1.5,1.5-1.5h1.5v-6c0-0.4,0.3-0.7,0.7-0.7
	c0.4,0,0.7,0.3,0.7,0.7v6h1.5c0.8,0,1.5,0.7,1.5,1.5v3l0,0l0,0c1.7,0,3,1.3,3,3v6h5.2v-4.5h3v-2.2h4.5v2.2h0.7v18.7H10.6z
	 M19.5,15.8c0-0.4-0.3-0.7-0.7-0.7h-3c-0.4,0-0.7,0.3-0.7,0.7V18h4.5V15.8z M22.5,21c0-0.8-0.7-1.5-1.5-1.5h-7.5
	c-0.8,0-1.5,0.7-1.5,1.5v18.7h10.5V21z M29.2,28.5H24v11.2h5.2V28.5z M36,24h-5.2v15.7H36V24z M33,26.2h0.7c0.4,0,0.7,0.3,0.7,0.7
	v0.7c0,0.4-0.3,0.7-0.7,0.7H33c-0.4,0-0.7-0.3-0.7-0.7V27C32.2,26.6,32.6,26.2,33,26.2z M33,30.7h0.7c0.4,0,0.7,0.3,0.7,0.7v0.7
	c0,0.4-0.3,0.7-0.7,0.7H33c-0.4,0-0.7-0.3-0.7-0.7v-0.7C32.2,31.1,32.6,30.7,33,30.7z M33,35.2h0.7c0.4,0,0.7,0.3,0.7,0.7v0.7
	c0,0.4-0.3,0.7-0.7,0.7H33c-0.4,0-0.7-0.3-0.7-0.7V36C32.2,35.5,32.6,35.2,33,35.2z M26.2,30.7H27c0.4,0,0.7,0.3,0.7,0.7v0.7
	c0,0.4-0.3,0.7-0.7,0.7h-0.7c-0.4,0-0.7-0.3-0.7-0.7v-0.7C25.5,31.1,25.8,30.7,26.2,30.7z M26.2,35.2H27c0.4,0,0.7,0.3,0.7,0.7v0.7
	c0,0.4-0.3,0.7-0.7,0.7h-0.7c-0.4,0-0.7-0.3-0.7-0.7V36C25.5,35.5,25.8,35.2,26.2,35.2z M19.5,37.4h-0.7c-0.4,0-0.7-0.3-0.7-0.7V36
	c0-0.4,0.3-0.7,0.7-0.7h0.7c0.4,0,0.7,0.3,0.7,0.7v0.7C20.3,37.1,19.9,37.4,19.5,37.4z M19.5,33h-0.7c-0.4,0-0.7-0.3-0.7-0.7v-0.7
	c0-0.4,0.3-0.7,0.7-0.7h0.7c0.4,0,0.7,0.3,0.7,0.7v0.7C20.3,32.6,19.9,33,19.5,33z M19.5,28.5h-0.7c-0.4,0-0.7-0.3-0.7-0.7V27
	c0-0.4,0.3-0.7,0.7-0.7h0.7c0.4,0,0.7,0.3,0.7,0.7v0.7C20.3,28.1,19.9,28.5,19.5,28.5z M19.5,24h-0.7c-0.4,0-0.7-0.3-0.7-0.7v-0.7
	c0-0.4,0.3-0.7,0.7-0.7h0.7c0.4,0,0.7,0.3,0.7,0.7v0.7C20.3,23.7,19.9,24,19.5,24z M15.8,37.4H15c-0.4,0-0.7-0.3-0.7-0.7V36
	c0-0.4,0.3-0.7,0.7-0.7h0.7c0.4,0,0.7,0.3,0.7,0.7v0.7C16.5,37.1,16.2,37.4,15.8,37.4z M15.8,33H15c-0.4,0-0.7-0.3-0.7-0.7v-0.7
	c0-0.4,0.3-0.7,0.7-0.7h0.7c0.4,0,0.7,0.3,0.7,0.7v0.7C16.5,32.6,16.2,33,15.8,33z M15.8,28.5H15c-0.4,0-0.7-0.3-0.7-0.7V27
	c0-0.4,0.3-0.7,0.7-0.7h0.7c0.4,0,0.7,0.3,0.7,0.7v0.7C16.5,28.1,16.2,28.5,15.8,28.5z M15.8,24H15c-0.4,0-0.7-0.3-0.7-0.7v-0.7
	c0-0.4,0.3-0.7,0.7-0.7h0.7c0.4,0,0.7,0.3,0.7,0.7v0.7C16.5,23.7,16.2,24,15.8,24z"/>
<path class="st1" d="M24,48C10.8,48,0,37.2,0,24C0,10.8,10.8,0,24,0c13.2,0,24,10.8,24,24C48,37.2,37.2,48,24,48z M24,1.5
	C11.6,1.5,1.5,11.6,1.5,24c0,12.4,10.1,22.5,22.5,22.5c12.4,0,22.5-10.1,22.5-22.5C46.5,11.6,36.4,1.5,24,1.5z"/>
</svg>
